# xmcd CD database file
#
# Track frame offsets:
#	150
#	18067
#	43542
#	61803
#	97057
#	117807
#	137894
#	156296
#	172355
#	189100
#	207183
#	230822
#
# Disc length: 3263 seconds
#
# Revision: 0
# Processed by: cddbd v1.5.2PL0 Copyright (c) Steve Scherf et al.
# Submitted via: CDex 1.70beta2
#
DISCID=a20cbd0c
DTITLE=Ben Harper - Burn To Shine
DYEAR=1900
DGENRE=Blues
TTITLE0=Alone
TTITLE1=The woman in you
TTITLE2=Less
TTITLE3=Two hands of a prayer
TTITLE4=Please bleed
TTITLE5=Suzie blue
TTITLE6=Steal my kisses
TTITLE7=Burn to shine
TTITLE8=Show me a little shame
TTITLE9=Forgiven
TTITLE10=Beloved one
TTITLE11=In the lord's arms
EXTD=
EXTT0=
EXTT1=
EXTT2=
EXTT3=
EXTT4=
EXTT5=
EXTT6=
EXTT7=
EXTT8=
EXTT9=
EXTT10=
EXTT11=
PLAYORDER=
